<?xml version="1.0" encoding="utf-8"?>
<!-- Generator: Adobe Illustrator 15.0.2, SVG Export Plug-In . SVG Version: 6.00 Build 0)  -->
<!DOCTYPE svg PUBLIC "-//W3C//DTD SVG 1.1//EN" "http://www.w3.org/Graphics/SVG/1.1/DTD/svg11.dtd">
<svg version="1.1" id="Слой_1" xmlns="http://www.w3.org/2000/svg" xmlns:xlink="http://www.w3.org/1999/xlink" x="0px" y="0px"
	 width="263px" height="62px" viewBox="0 0 263 62" enable-background="new 0 0 263 62" xml:space="preserve">
<g>
	<polygon fill-rule="evenodd" clip-rule="evenodd" fill="#208e8d" points="185.232,61.283 172.05,61.283 172.05,23.411
		185.232,23.411 185.232,61.283 	"/>
	<polygon fill-rule="evenodd" clip-rule="evenodd" fill="#208e8d" points="153.712,39.058 156.281,39.058 156.281,23.411
		169.492,23.411 169.492,61.283 156.281,61.283 156.281,41.585 153.712,41.585 153.712,61.283 140.542,61.283 140.544,23.411 
		153.712,23.411 	"/>
	<path fill-rule="evenodd" clip-rule="evenodd" fill="#208e8d" d="M122.652,41.728l15.229-18.135l0.103-0.094v37.784h-13.185V42.769
		c-1.292,1.536-15.222,18.455-15.118,18.703l0,0V23.411h12.972V41.728L122.652,41.728z"/>
	<polygon fill-rule="evenodd" clip-rule="evenodd" fill="#208e8d" points="104.145,17.895 104.145,61.283 96.573,61.283
		96.573,3.179 122,17.895 104.145,17.895 	"/>
	<polygon fill-rule="evenodd" clip-rule="evenodd" fill="#208e8d" points="122.776,15.32 96.573,0.717 122.776,0.717 122.776,15.32
			"/>
	<polygon fill-rule="evenodd" clip-rule="evenodd" fill="#208e8d" points="86.445,17.9 86.445,61.283 94.016,61.283 94.016,3.179
		68.594,17.895 86.445,17.9 	"/>
	<polygon fill-rule="evenodd" clip-rule="evenodd" fill="#208e8d" points="68.083,15.32 94.016,0.717 68.083,0.717 68.083,15.32
		"/>
	<polygon fill-rule="evenodd" clip-rule="evenodd" fill="#208e8d" points="187.791,40.41 204.405,61.283 187.791,61.283
		187.791,40.41 187.791,23.411 203.347,23.411 187.791,40.41 	"/>
	<path fill-rule="evenodd" clip-rule="evenodd" fill="#208e8d" d="M214.634,61.33c-4.604-0.103-8.492-1.941-11.681-5.5
		c-3.183-3.565-4.78-8.461-4.78-14.713c0-5.807,1.621-10.321,4.854-13.525c3.235-3.211,7.107-4.834,11.606-4.873V61.33
		L214.634,61.33z"/>
	<path fill-rule="evenodd" clip-rule="evenodd" fill="#208e8d" d="M217.192,61.33c4.605-0.103,8.493-1.941,11.688-5.5
		c3.181-3.565,4.774-8.461,4.774-14.713c0-5.807-1.621-10.321-4.854-13.525c-3.23-3.211-7.106-4.834-11.609-4.873V61.33
		L217.192,61.33z"/>
	<g>
		<path fill="#208e8d" d="M138,2.253h-4.285V0.706h10.427v1.548h-4.307v12.533H138V2.253z"/>
		<path fill="#208e8d" d="M152.874,9.649c0,3.738-2.612,5.367-5.034,5.367c-2.717,0-4.848-2.004-4.848-5.202
			c0-3.365,2.237-5.347,5.014-5.347C150.909,4.467,152.874,6.576,152.874,9.649z M144.872,9.753c0,2.213,1.252,3.885,3.051,3.885
			c1.755,0,3.069-1.651,3.069-3.93c0-1.712-0.854-3.863-3.025-3.863C145.812,5.846,144.872,7.85,144.872,9.753z"/>
		<path fill="#208e8d" d="M155.191,7.975c0-1.294-0.04-2.337-0.082-3.301h1.632l0.104,1.735h0.043
			c0.73-1.234,1.941-1.942,3.591-1.942c2.467,0,4.305,2.069,4.305,5.117c0,3.635-2.237,5.431-4.617,5.431
			c-1.337,0-2.509-0.584-3.115-1.587h-0.037v5.496h-1.822V7.975z M157.014,10.67c0,0.271,0.021,0.523,0.084,0.75
			c0.33,1.276,1.437,2.153,2.758,2.153c1.939,0,3.068-1.587,3.068-3.906c0-2.005-1.065-3.74-3.012-3.74
			c-1.25,0-2.44,0.877-2.774,2.256c-0.063,0.231-0.124,0.501-0.124,0.731V10.67z"/>
		<path fill="#208e8d" d="M173.247,4.674v1.464h-4.39v8.648h-1.815V4.674H173.247z"/>
		<path fill="#208e8d" d="M183.86,9.649c0,3.738-2.613,5.367-5.035,5.367c-2.718,0-4.849-2.004-4.849-5.202
			c0-3.365,2.237-5.347,5.014-5.347C181.895,4.467,183.86,6.576,183.86,9.649z M175.858,9.753c0,2.213,1.252,3.885,3.052,3.885
			c1.751,0,3.07-1.651,3.07-3.93c0-1.712-0.858-3.863-3.029-3.863C176.795,5.846,175.858,7.85,175.858,9.753z"/>
		<path fill="#208e8d" d="M186.117,4.802c0.729-0.128,2.047-0.232,3.216-0.232c1.715,0,4.515,0.294,4.515,2.528
			c0,1.254-0.964,2.049-2.111,2.3v0.041c1.484,0.21,2.571,1.023,2.571,2.485c0,2.655-3.345,2.988-5.328,2.988
			c-1.127,0-2.317-0.085-2.862-0.126V4.802z M187.872,13.596c0.523,0.042,0.897,0.062,1.461,0.062c1.256,0,3.094-0.271,3.094-1.757
			c0-1.46-1.484-1.772-3.218-1.772h-1.337V13.596z M187.895,8.937h1.377c1.357,0,2.758-0.396,2.758-1.609
			c0-1.001-0.876-1.482-2.716-1.482c-0.626,0-1.005,0.041-1.419,0.083V8.937z"/>
		<path fill="#208e8d" d="M198.402,4.674v3.428c0.375-0.064,0.964-0.127,1.63-0.127c2.174,0,4.387,0.902,4.387,3.406
			c0,1.066-0.421,1.798-1.068,2.34c-1.105,0.941-2.734,1.168-4.072,1.168c-1.001,0-1.941-0.062-2.716-0.145V4.674H198.402z
			 M198.382,13.491c0.375,0.064,0.773,0.083,1.272,0.083c1.424,0,2.926-0.562,2.926-2.153c0-1.629-1.46-2.129-2.841-2.129
			c-0.522,0-0.982,0.042-1.357,0.125V13.491z M207.509,4.674v10.112h-1.814V4.674H207.509z"/>
		<path fill="#208e8d" d="M212.215,4.674v4.263c0,1.589-0.043,2.61-0.127,4.054l0.065,0.021c0.624-1.234,0.958-1.944,1.647-3.115
			l3.154-5.223h2.149v10.112h-1.751v-4.284c0-1.651,0.039-2.506,0.125-4.155h-0.042c-0.67,1.316-1.084,2.129-1.694,3.153
			c-0.96,1.567-2.088,3.512-3.151,5.286h-2.133V4.674H212.215z M213.405,0.56c0.062,0.898,0.5,1.589,1.335,1.589
			c0.898,0,1.319-0.691,1.421-1.589h1.317c-0.104,1.694-1.172,2.589-2.777,2.589c-1.841,0-2.548-1.168-2.634-2.589H213.405z"/>
		<path fill="#208e8d" d="M236.22,0.706v12.596l1.23,0.043l-0.126,4.826h-1.419l-0.124-3.385h-8.878l-0.128,3.385h-1.421
			l-0.104-4.826l1.043-0.043c0.527-0.959,1.048-1.982,1.38-3.091c0.482-1.631,0.667-3.508,0.667-5.931V0.706H236.22z M230.036,4.864
			c0,2.255-0.21,4.157-0.712,5.744c-0.292,0.983-0.754,1.923-1.147,2.674h6.224V2.211h-4.364V4.864z"/>
		<path fill="#208e8d" d="M248.712,9.649c0,3.738-2.612,5.367-5.032,5.367c-2.715,0-4.849-2.004-4.849-5.202
			c0-3.365,2.236-5.347,5.013-5.347C246.747,4.467,248.712,6.576,248.712,9.649z M240.711,9.753c0,2.213,1.258,3.885,3.051,3.885
			c1.752,0,3.073-1.651,3.073-3.93c0-1.712-0.858-3.863-3.031-3.863C241.653,5.846,240.711,7.85,240.711,9.753z"/>
		<path fill="#208e8d" d="M251.156,4.674h2.257l1.822,5.099c0.268,0.753,0.689,1.985,0.916,2.779h0.043
			c0.229-0.774,0.794-2.361,1.21-3.467l1.611-4.41h2.273L262,14.786h-1.752l-0.233-4.826c-0.04-1.108-0.123-2.38-0.166-3.613h-0.063
			c-0.27,0.918-0.56,1.712-1.126,3.279l-1.941,5.098h-1.319l-1.795-5.015c-0.33-0.939-0.773-2.401-1.023-3.341h-0.083
			c-0.045,1.192-0.083,2.528-0.147,3.634l-0.271,4.785h-1.692L251.156,4.674z"/>
	</g>
	<path fill="#208e8d" d="M49.677,36.191c3.929,4.13,5.909,9.225,6.913,13.351c3.889-5.168,6.194-11.593,6.194-18.557
		c0-7.004-2.335-13.462-6.265-18.645c-1.053,4.236-3.086,9.286-7.008,12.975l-0.568,0.536c-0.341-1.129-0.788-2.211-1.335-3.235
		l0.189-0.191c1.974-2.004,5.545-8.035,6.061-13.155C49.146,4.503,42.896,1.27,35.913,0.361c3.217,4.071,5.506,8.578,4.059,13.86
		L39.75,15.03c-2.373-1.17-5.034-1.845-7.858-1.845c-2.561,0-4.988,0.55-7.188,1.522l-0.312,0.065l-0.188-0.712
		c-1.475-5.646,1.182-9.986,4.25-13.772c-7.087,0.785-13.449,3.965-18.261,8.716c0.308,2.035,1.542,7.495,6.212,13.213
		c-0.599,1.054-1.099,2.17-1.475,3.344l-0.29-0.303c-4.269-4.45-6.222-9.889-7.078-13.297C3.455,17.205,1,23.806,1,30.984
		c0,7.146,2.433,13.72,6.506,18.954c1.424-5.912,3.779-10.397,7.185-13.665l0.146-0.14c0.335,1.115,0.777,2.185,1.314,3.198
		c-3.128,3.703-5.252,8.48-6.006,13.59c4.871,4.83,11.343,8.049,18.549,8.791c-3.268-3.887-5.882-8.557-4.494-14.332l0.072-0.297
		c2.312,1.098,4.89,1.73,7.62,1.73c2.911,0,5.651-0.713,8.079-1.951l0.153,0.684c1.286,5.662-1.539,10.156-4.629,14.115
		c7.201-0.837,13.646-4.147,18.461-9.063c-0.755-5.408-2.787-8.538-5.122-12.13c-0.331-0.504-0.666-1.02-1.003-1.547
		c0.528-1.06,0.95-2.177,1.26-3.344L49.677,36.191z"/>
</g>
</svg>
