<?xml version="1.0" encoding="utf-8"?>
<!-- Generator: Adobe Illustrator 23.0.4, SVG Export Plug-In . SVG Version: 6.00 Build 0)  -->
<svg version="1.1" id="Слой_1" xmlns="http://www.w3.org/2000/svg" xmlns:xlink="http://www.w3.org/1999/xlink" x="0px" y="0px"
	 viewBox="0 0 263 62" style="enable-background:new 0 0 263 62;" xml:space="preserve">
<style type="text/css">
	.st0{fill-rule:evenodd;clip-rule:evenodd;fill:#006564;}
	.st1{fill:#006564;}
</style>
<g>
	<polygon class="st0" points="185.2,61.3 172.1,61.3 172.1,23.4 185.2,23.4 	"/>
	<polygon class="st0" points="153.7,39.1 156.3,39.1 156.3,23.4 169.5,23.4 169.5,61.3 156.3,61.3 156.3,41.6 153.7,41.6 
		153.7,61.3 140.5,61.3 140.5,23.4 153.7,23.4 	"/>
	<path class="st0" d="M122.7,41.7l15.2-18.1l0.1-0.1v37.8h-13.2V42.8c-1.3,1.5-15.2,18.5-15.1,18.7l0,0V23.4h13L122.7,41.7
		L122.7,41.7z"/>
	<polygon class="st0" points="104.1,17.9 104.1,61.3 96.6,61.3 96.6,3.2 122,17.9 	"/>
	<polygon class="st0" points="122.8,15.3 96.6,0.7 122.8,0.7 	"/>
	<polygon class="st0" points="86.4,17.9 86.4,61.3 94,61.3 94,3.2 68.6,17.9 	"/>
	<polygon class="st0" points="68.1,15.3 94,0.7 68.1,0.7 	"/>
	<polygon class="st0" points="187.8,40.4 204.4,61.3 187.8,61.3 187.8,40.4 187.8,23.4 203.3,23.4 	"/>
	<path class="st0" d="M214.6,61.3c-4.6-0.1-8.5-1.9-11.7-5.5c-3.2-3.6-4.8-8.5-4.8-14.7c0-5.8,1.6-10.3,4.9-13.5
		c3.2-3.2,7.1-4.8,11.6-4.9L214.6,61.3L214.6,61.3z"/>
	<path class="st0" d="M217.2,61.3c4.6-0.1,8.5-1.9,11.7-5.5c3.2-3.6,4.8-8.5,4.8-14.7c0-5.8-1.6-10.3-4.9-13.5
		c-3.2-3.2-7.1-4.8-11.6-4.9L217.2,61.3L217.2,61.3z"/>
	<g>
		<path class="st1" d="M138,2.3h-4.3V0.7h10.4v1.5h-4.3v12.5H138V2.3z"/>
		<path class="st1" d="M152.9,9.6c0,3.7-2.6,5.4-5,5.4c-2.7,0-4.8-2-4.8-5.2c0-3.4,2.2-5.3,5-5.3C150.9,4.5,152.9,6.6,152.9,9.6z
			 M144.9,9.8c0,2.2,1.3,3.9,3.1,3.9c1.8,0,3.1-1.7,3.1-3.9c0-1.7-0.9-3.9-3-3.9C145.8,5.8,144.9,7.8,144.9,9.8z"/>
		<path class="st1" d="M155.2,8c0-1.3,0-2.3-0.1-3.3h1.6l0.1,1.7h0c0.7-1.2,1.9-1.9,3.6-1.9c2.5,0,4.3,2.1,4.3,5.1
			c0,3.6-2.2,5.4-4.6,5.4c-1.3,0-2.5-0.6-3.1-1.6h0v5.5h-1.8L155.2,8L155.2,8z M157,10.7c0,0.3,0,0.5,0.1,0.8
			c0.3,1.3,1.4,2.2,2.8,2.2c1.9,0,3.1-1.6,3.1-3.9c0-2-1.1-3.7-3-3.7c-1.2,0-2.4,0.9-2.8,2.3c-0.1,0.2-0.1,0.5-0.1,0.7V10.7z"/>
		<path class="st1" d="M173.2,4.7v1.5h-4.4v8.6H167V4.7H173.2z"/>
		<path class="st1" d="M183.9,9.6c0,3.7-2.6,5.4-5,5.4c-2.7,0-4.8-2-4.8-5.2c0-3.4,2.2-5.3,5-5.3C181.9,4.5,183.9,6.6,183.9,9.6z
			 M175.9,9.8c0,2.2,1.3,3.9,3.1,3.9c1.8,0,3.1-1.7,3.1-3.9c0-1.7-0.9-3.9-3-3.9C176.8,5.8,175.9,7.8,175.9,9.8z"/>
		<path class="st1" d="M186.1,4.8c0.7-0.1,2-0.2,3.2-0.2c1.7,0,4.5,0.3,4.5,2.5c0,1.3-1,2-2.1,2.3v0c1.5,0.2,2.6,1,2.6,2.5
			c0,2.7-3.3,3-5.3,3c-1.1,0-2.3-0.1-2.9-0.1L186.1,4.8L186.1,4.8z M187.9,13.6c0.5,0,0.9,0.1,1.5,0.1c1.3,0,3.1-0.3,3.1-1.8
			c0-1.5-1.5-1.8-3.2-1.8h-1.3L187.9,13.6L187.9,13.6z M187.9,8.9h1.4c1.4,0,2.8-0.4,2.8-1.6c0-1-0.9-1.5-2.7-1.5
			c-0.6,0-1,0-1.4,0.1L187.9,8.9L187.9,8.9z"/>
		<path class="st1" d="M198.4,4.7v3.4c0.4-0.1,1-0.1,1.6-0.1c2.2,0,4.4,0.9,4.4,3.4c0,1.1-0.4,1.8-1.1,2.3c-1.1,0.9-2.7,1.2-4.1,1.2
			c-1,0-1.9-0.1-2.7-0.1V4.7H198.4z M198.4,13.5c0.4,0.1,0.8,0.1,1.3,0.1c1.4,0,2.9-0.6,2.9-2.2c0-1.6-1.5-2.1-2.8-2.1
			c-0.5,0-1,0-1.4,0.1V13.5z M207.5,4.7v10.1h-1.8V4.7H207.5z"/>
		<path class="st1" d="M212.2,4.7v4.3c0,1.6,0,2.6-0.1,4.1l0.1,0c0.6-1.2,1-1.9,1.6-3.1l3.2-5.2h2.1v10.1h-1.8v-4.3
			c0-1.7,0-2.5,0.1-4.2h0c-0.7,1.3-1.1,2.1-1.7,3.2c-1,1.6-2.1,3.5-3.2,5.3h-2.1V4.7H212.2z M213.4,0.6c0.1,0.9,0.5,1.6,1.3,1.6
			c0.9,0,1.3-0.7,1.4-1.6h1.3c-0.1,1.7-1.2,2.6-2.8,2.6c-1.8,0-2.5-1.2-2.6-2.6C212.1,0.6,213.4,0.6,213.4,0.6z"/>
		<path class="st1" d="M236.2,0.7v12.6l1.2,0l-0.1,4.8h-1.4l-0.1-3.4h-8.9l-0.1,3.4h-1.4l-0.1-4.8l1,0c0.5-1,1-2,1.4-3.1
			c0.5-1.6,0.7-3.5,0.7-5.9V0.7H236.2z M230,4.9c0,2.3-0.2,4.2-0.7,5.7c-0.3,1-0.8,1.9-1.1,2.7h6.2V2.2H230L230,4.9L230,4.9z"/>
		<path class="st1" d="M248.7,9.6c0,3.7-2.6,5.4-5,5.4c-2.7,0-4.8-2-4.8-5.2c0-3.4,2.2-5.3,5-5.3C246.7,4.5,248.7,6.6,248.7,9.6z
			 M240.7,9.8c0,2.2,1.3,3.9,3.1,3.9c1.8,0,3.1-1.7,3.1-3.9c0-1.7-0.9-3.9-3-3.9C241.7,5.8,240.7,7.8,240.7,9.8z"/>
		<path class="st1" d="M251.2,4.7h2.3l1.8,5.1c0.3,0.8,0.7,2,0.9,2.8h0c0.2-0.8,0.8-2.4,1.2-3.5l1.6-4.4h2.3l0.7,10.1h-1.8L260,10
			c0-1.1-0.1-2.4-0.2-3.6h-0.1c-0.3,0.9-0.6,1.7-1.1,3.3l-1.9,5.1h-1.3l-1.8-5c-0.3-0.9-0.8-2.4-1-3.3h-0.1c0,1.2-0.1,2.5-0.1,3.6
			l-0.3,4.8h-1.7L251.2,4.7z"/>
	</g>
	<path class="st1" d="M49.7,36.2c3.9,4.1,5.9,9.2,6.9,13.4c3.9-5.2,6.2-11.6,6.2-18.6c0-7-2.3-13.5-6.3-18.6c-1.1,4.2-3.1,9.3-7,13
		l-0.6,0.5c-0.3-1.1-0.8-2.2-1.3-3.2l0.2-0.2c2-2,5.5-8,6.1-13.2c-4.7-4.8-11-8-17.9-8.9c3.2,4.1,5.5,8.6,4.1,13.9L39.8,15
		c-2.4-1.2-5-1.8-7.9-1.8c-2.6,0-5,0.6-7.2,1.5l-0.3,0.1l-0.2-0.7c-1.5-5.6,1.2-10,4.2-13.8C21.4,1.1,15,4.3,10.2,9
		c0.3,2,1.5,7.5,6.2,13.2c-0.6,1.1-1.1,2.2-1.5,3.3l-0.3-0.3c-4.3-4.5-6.2-9.9-7.1-13.3C3.5,17.2,1,23.8,1,31c0,7.1,2.4,13.7,6.5,19
		c1.4-5.9,3.8-10.4,7.2-13.7l0.1-0.1c0.3,1.1,0.8,2.2,1.3,3.2c-3.1,3.7-5.3,8.5-6,13.6c4.9,4.8,11.3,8,18.5,8.8
		c-3.3-3.9-5.9-8.6-4.5-14.3l0.1-0.3c2.3,1.1,4.9,1.7,7.6,1.7c2.9,0,5.7-0.7,8.1-2l0.2,0.7c1.3,5.7-1.5,10.2-4.6,14.1
		c7.2-0.8,13.6-4.1,18.5-9.1c-0.8-5.4-2.8-8.5-5.1-12.1c-0.3-0.5-0.7-1-1-1.5c0.5-1.1,1-2.2,1.3-3.3L49.7,36.2z"/>
</g>
</svg>
